<svg width="98" height="28" viewBox="0 0 98 28" fill="none" xmlns="http://www.w3.org/2000/svg">
<path d="M0.232869 21H15.02L15.2529 20.7667L15.6895 15.6042L15.5149 15.3708H14.3797L14.1468 15.6042C13.943 17.2083 13.1862 19.425 10.0134 19.425H6.84053C6.25835 19.425 5.67618 18.8417 5.67618 18.2583V11.2875H9.57674C10.1589 11.2875 10.7411 11.8708 10.7411 12.4542V12.8042L10.974 13.0375H12.0801L12.3129 12.8042V8.19583L12.0801 7.9625H10.974L10.7411 8.19583V8.54583C10.7411 9.1 10.1589 9.7125 9.57674 9.7125H5.67618V3.325C5.67618 2.74167 6.25835 2.15833 6.84053 2.15833H9.83871C11.4106 2.15833 12.2547 3.09167 12.4876 4.92917L12.7205 5.1625H13.6519L13.8848 4.92917L14.6125 1.75V0.845833L14.3506 0.583333H0.232869L0 0.816667V1.925L0.232869 2.15833H1.16434C1.74652 2.15833 2.32869 2.74167 2.32869 3.325V18.2583C2.32869 18.8417 1.74652 19.425 1.16434 19.425H0.232869L0 19.6583V20.7667L0.232869 21ZM17.8567 21H23.9404L24.1733 20.7667V19.6583L23.9404 19.425H23.5038C22.9216 19.425 22.4267 18.9292 22.4267 18.3458V12.5708C22.4267 10.2083 23.9113 8.07917 26.3564 8.07917C28.3067 8.07917 29.3255 9.3625 29.3255 11.2875V18.3458C29.3255 18.9292 28.8306 19.425 28.2485 19.425H27.8118L27.579 19.6583V20.7667L27.8118 21H33.8955L34.1284 20.7667V19.6583L33.8955 19.425H33.4589C32.8767 19.425 32.3819 18.9292 32.3819 18.3458V11.0833C32.3819 7.875 30.3443 6.18333 27.3461 6.18333C25.0465 6.18333 23.3291 7.2625 22.2521 8.925L22.5141 6.79583L22.3103 6.59167H21.4953L17.7985 8.02083L17.6238 8.25417V8.98333L17.8567 9.21667H18.2933C18.8755 9.21667 19.3703 9.625 19.3703 10.2667V18.3458C19.3703 18.9292 18.8755 19.425 18.2933 19.425H17.8567L17.6238 19.6583V20.7667L17.8567 21ZM50.1833 6.59167H45.2639C44.5071 6.32917 43.692 6.18333 42.8188 6.18333C39.2675 6.18333 36.6186 8.60417 36.6186 11.6375C36.6186 13.475 37.5792 14.9625 38.9764 15.8958L36.2402 19.3958V20.5917L36.4731 20.7958H38.4234C37.1426 21.5833 36.444 22.8083 36.444 24.0042C36.444 26.25 38.4525 28 42.4404 28C46.4283 28 50.1542 25.9583 50.1542 22.5167C50.1542 20.0083 48.4076 18.4042 45.0893 18.4042H39.3257L40.5774 16.6833C41.3342 16.975 41.8582 17.0917 42.7315 17.0917C46.37 17.0917 48.9898 14.6417 48.9898 11.6375C48.9898 10.3833 48.5532 9.30417 47.8255 8.4H50.1833L50.4452 8.1375V6.85417L50.1833 6.59167ZM42.8188 15.4875C41.0723 15.4875 39.5877 14.175 39.5877 11.6375C39.5877 9.1 41.0723 7.7875 42.8188 7.7875C44.5071 7.7875 45.9916 9.1 45.9916 11.6375C45.9916 14.175 44.5071 15.4875 42.8188 15.4875ZM40.723 20.7958H44.2742C46.4574 20.7958 47.156 21.9042 47.156 23.1292C47.156 24.9375 45.555 26.3958 42.9061 26.3958C40.5774 26.3958 39.0347 25.375 39.0347 23.5083C39.0347 22.3125 39.7333 21.2917 40.723 20.7958ZM52.2791 21H58.3628L58.5957 20.7667V19.6583L58.3628 19.425H57.9262C57.344 19.425 56.8491 18.9292 56.8491 18.3458V2.42083L57.082 0.204167L56.8783 0H56.0632L52.25 1.42917L52.0462 1.69167V2.3625L52.3082 2.625H52.7157C53.2979 2.625 53.7927 3.03333 53.7927 3.675V18.3458C53.7927 18.9292 53.2979 19.425 52.7157 19.425H52.2791L52.0462 19.6583V20.7667L52.2791 21ZM63.6955 4.2C64.8016 4.2 65.704 3.29583 65.704 2.1875C65.704 1.07917 64.8016 0.175 63.6955 0.175C62.5894 0.175 61.687 1.07917 61.687 2.1875C61.687 3.29583 62.5894 4.2 63.6955 4.2ZM60.6391 21H66.7228L66.9557 20.7667V19.6583L66.7228 19.425H66.2862C65.704 19.425 65.2091 18.9292 65.2091 18.3458V9.0125L65.442 6.825L65.2091 6.59167H64.4232L60.61 8.02083L60.4062 8.28333V8.95417L60.6682 9.21667H61.0757C61.6579 9.21667 62.1527 9.625 62.1527 10.2667V18.3458C62.1527 18.9292 61.6579 19.425 61.0757 19.425H60.6391L60.4062 19.6583V20.7667L60.6391 21ZM74.2867 21.4083C77.1393 21.4083 79.4971 19.7458 79.4971 16.8292C79.4971 14.4667 77.6924 13.4167 75.7421 12.6C73.2679 11.6083 72.3655 10.8208 72.3655 9.59583C72.3655 8.37083 73.3261 7.58333 74.5777 7.58333C76.2369 7.58333 77.0811 8.8375 77.1975 10.6167L77.4595 10.8792H78.3328L78.5947 10.6167L78.4492 7.37917L78.2454 7.0875C77.2557 6.5625 76.1205 6.18333 74.636 6.18333C71.696 6.18333 69.6002 7.875 69.6002 10.5C69.6002 12.4542 71.0556 13.7083 73.6754 14.7292C75.3928 15.4 76.5571 16.0708 76.5571 17.7917C76.5571 19.0458 75.7712 20.0375 74.2284 20.0375C72.5984 20.0375 71.172 18.9292 71.2885 16.6542L71.0265 16.3917H70.2697L70.0077 16.6542L69.2218 19.775L69.3673 20.0667C70.4734 20.7958 72.1908 21.4083 74.2867 21.4083ZM81.7283 21H87.812L88.0448 20.7667V19.6583L87.812 19.425H87.3754C86.7932 19.425 86.2983 18.9292 86.2983 18.3458V12.5417C86.2983 10.1792 87.7829 8.05 90.1698 8.05C92.2074 8.05 93.1971 9.39167 93.1971 11.2875V18.3458C93.1971 18.9292 92.7022 19.425 92.1201 19.425H91.6834L91.4506 19.6583V20.7667L91.6834 21H97.7671L98 20.7667V19.6583L97.7671 19.425H97.3305C96.7483 19.425 96.2535 18.9292 96.2535 18.3458V11.0833C96.2535 7.90417 94.2159 6.18333 91.1595 6.18333C89.1219 6.18333 87.4045 7.14583 86.2983 8.72083V2.42083L86.5312 0.204167L86.3274 0H85.5124L81.6992 1.42917L81.4954 1.69167V2.3625L81.7574 2.625H82.1649C82.7471 2.625 83.2419 3.03333 83.2419 3.675V18.3458C83.2419 18.9292 82.7471 19.425 82.1649 19.425H81.7283L81.4954 19.6583V20.7667L81.7283 21Z" fill="#133844"/>
</svg>
